<svg xmlns="http://www.w3.org/2000/svg" width="960" height="360" viewBox="0 0 960 360" role="img" aria-labelledby="title desc">
  <title id="title">Chrome Web Store</title>
  <desc id="desc">Instalar la extensión de Clear Download Manager desde Chrome Web Store.</desc>
  <rect x="4" y="4" width="952" height="352" rx="20" fill="#111c29" stroke="#2b3b4d" stroke-width="2"/>
  <g transform="translate(38 97) scale(1.28)">
    <path d="M60 7a54 54 0 0 1 46 26H60a27 27 0 0 0-23 13L23 30A54 54 0 0 1 60 7z" fill="#ea4335"/>
    <path d="M106 33a54 54 0 0 1-1 55L82 48a27 27 0 0 0-22-14z" fill="#fbbc04"/>
    <path d="M105 88a54 54 0 0 1-91-5l23-40a27 27 0 0 0 45 5z" fill="#34a853"/>
    <circle cx="60" cy="61" r="27" fill="#fff"/>
    <circle cx="60" cy="61" r="19" fill="#4285f4"/>
  </g>
  <g font-family="-apple-system,BlinkMacSystemFont,'Segoe UI',sans-serif">
    <text x="214" y="153" fill="#f5f8fb" font-size="54" font-weight="650">Chrome Web Store</text>
    <text x="214" y="198" fill="#a9b8c9" font-size="30">Disponible en Chrome Web Store</text>
  </g>
  <path d="M882 149l15 15-15 15" fill="none" stroke="#dfe8f0" stroke-width="3.5" stroke-linecap="round" stroke-linejoin="round"/>
</svg>
