<svg xmlns="http://www.w3.org/2000/svg" width="960" height="300" viewBox="0 0 960 300" role="img" aria-labelledby="title desc">
  <title id="title">Microsoft Store</title>
  <desc id="desc">Obtener Clear Download Manager en Microsoft Store.</desc>
  <rect x="4" y="4" width="952" height="292" rx="20" fill="#111c29" stroke="#2b3b4d" stroke-width="2"/>
  <defs>
    <linearGradient id="store-blue" x1="0" y1="0" x2="1" y2="1"><stop offset="0" stop-color="#1388d5"/><stop offset="1" stop-color="#164b93"/></linearGradient>
    <linearGradient id="store-handle" x1="0" y1="0" x2="1" y2="1"><stop offset="0" stop-color="#2bd0e4"/><stop offset="1" stop-color="#088fd0"/></linearGradient>
  </defs>
  <g transform="translate(40 86)">
    <path d="M22 48h102l-9 113H31z" fill="url(#store-blue)"/>
    <path d="M47 51V31c0-16 11-27 26-27s26 11 26 27v20" fill="none" stroke="url(#store-handle)" stroke-width="10" stroke-linecap="round"/>
    <rect x="49" y="82" width="22" height="22" fill="#f04b2f"/><rect x="75" y="82" width="22" height="22" fill="#8bc400"/>
    <rect x="49" y="108" width="22" height="22" fill="#00a9e8"/><rect x="75" y="108" width="22" height="22" fill="#ffb900"/>
  </g>
  <g font-family="-apple-system,BlinkMacSystemFont,'Segoe UI',sans-serif">
    <text x="176" y="133" fill="#f5f8fb" font-size="42" font-weight="650">Microsoft Store</text>
    <text x="176" y="174" fill="#a9b8c9" font-size="25">Obtener en Microsoft Store</text>
  </g>
  <path d="M887 132l13 13-13 13" fill="none" stroke="#dfe8f0" stroke-width="3" stroke-linecap="round" stroke-linejoin="round"/>
</svg>
